<svg width="512" height="512" viewBox="0 0 512 512" xmlns="http://www.w3.org/2000/svg">
  <defs>
    <linearGradient id="sky" x1="0" y1="0" x2="0" y2="1">
      <stop offset="0" stop-color="#5fc0ff"/><stop offset="1" stop-color="#a5e0ff"/>
    </linearGradient>
  </defs>
  <rect width="512" height="512" rx="116" fill="url(#sky)"/>
  <circle cx="120" cy="120" r="40" fill="#ffffff" opacity=".45"/>
  <circle cx="420" cy="390" r="52" fill="#ffffff" opacity=".35"/>
  <g transform="translate(256 268)">
    <ellipse cx="0" cy="150" rx="130" ry="26" fill="rgba(40,90,150,.25)"/>
    <circle cx="-88" cy="20" r="98" fill="#ffffff"/>
    <circle cx="88" cy="20" r="98" fill="#ffffff"/>
    <circle cx="0" cy="-38" r="112" fill="#ffffff"/>
    <rect x="-140" y="6" width="280" height="100" rx="50" fill="#ffffff"/>
    <circle cx="-50" cy="-16" r="22" fill="#4b4560"/>
    <circle cx="50" cy="-16" r="22" fill="#4b4560"/>
    <circle cx="-42" cy="-24" r="7" fill="#ffffff"/>
    <circle cx="58" cy="-24" r="7" fill="#ffffff"/>
    <path d="M-28 34 q28 30 56 0" stroke="#4b4560" stroke-width="14" fill="none" stroke-linecap="round"/>
    <circle cx="-94" cy="28" r="19" fill="#ffb3cf" opacity=".85"/>
    <circle cx="94" cy="28" r="19" fill="#ffb3cf" opacity=".85"/>
    <rect x="42" y="64" width="86" height="64" rx="17" fill="#45b4ff" stroke="#ffffff" stroke-width="10"/>
    <path d="M42 78 l43 27 43 -27" stroke="#ffffff" stroke-width="9" fill="none"/>
  </g>
</svg>
